<svg width="20" height="20" viewBox="0 0 20 20" fill="none" xmlns="http://www.w3.org/2000/svg">
<g clip-path="url(#clip0_3_2)">
<path d="M17.1875 2.09375H2.8125C1.62164 2.09375 0.65625 3.05914 0.65625 4.25V17.1875C0.65625 18.3784 1.62164 19.3438 2.8125 19.3438H17.1875C18.3784 19.3438 19.3438 18.3784 19.3438 17.1875V4.25C19.3438 3.05914 18.3784 2.09375 17.1875 2.09375Z" stroke="black" stroke-width="1.4375" stroke-linejoin="round"/>
<path d="M11.7969 10C12.3923 10 12.875 9.51731 12.875 8.92188C12.875 8.32644 12.3923 7.84375 11.7969 7.84375C11.2014 7.84375 10.7188 8.32644 10.7188 8.92188C10.7188 9.51731 11.2014 10 11.7969 10Z" fill="black"/>
<path d="M15.3906 10C15.9861 10 16.4688 9.51731 16.4688 8.92188C16.4688 8.32644 15.9861 7.84375 15.3906 7.84375C14.7952 7.84375 14.3125 8.32644 14.3125 8.92188C14.3125 9.51731 14.7952 10 15.3906 10Z" fill="black"/>
<path d="M11.7969 13.5938C12.3923 13.5938 12.875 13.1111 12.875 12.5156C12.875 11.9202 12.3923 11.4375 11.7969 11.4375C11.2014 11.4375 10.7188 11.9202 10.7188 12.5156C10.7188 13.1111 11.2014 13.5938 11.7969 13.5938Z" fill="black"/>
<path d="M15.3906 13.5938C15.9861 13.5938 16.4688 13.1111 16.4688 12.5156C16.4688 11.9202 15.9861 11.4375 15.3906 11.4375C14.7952 11.4375 14.3125 11.9202 14.3125 12.5156C14.3125 13.1111 14.7952 13.5938 15.3906 13.5938Z" fill="black"/>
<path d="M4.60938 13.5938C5.20481 13.5938 5.6875 13.1111 5.6875 12.5156C5.6875 11.9202 5.20481 11.4375 4.60938 11.4375C4.01394 11.4375 3.53125 11.9202 3.53125 12.5156C3.53125 13.1111 4.01394 13.5938 4.60938 13.5938Z" fill="black"/>
<path d="M8.20312 13.5938C8.79856 13.5938 9.28125 13.1111 9.28125 12.5156C9.28125 11.9202 8.79856 11.4375 8.20312 11.4375C7.60769 11.4375 7.125 11.9202 7.125 12.5156C7.125 13.1111 7.60769 13.5938 8.20312 13.5938Z" fill="black"/>
<path d="M4.60938 17.1875C5.20481 17.1875 5.6875 16.7048 5.6875 16.1094C5.6875 15.5139 5.20481 15.0312 4.60938 15.0312C4.01394 15.0312 3.53125 15.5139 3.53125 16.1094C3.53125 16.7048 4.01394 17.1875 4.60938 17.1875Z" fill="black"/>
<path d="M8.20312 17.1875C8.79856 17.1875 9.28125 16.7048 9.28125 16.1094C9.28125 15.5139 8.79856 15.0312 8.20312 15.0312C7.60769 15.0312 7.125 15.5139 7.125 16.1094C7.125 16.7048 7.60769 17.1875 8.20312 17.1875Z" fill="black"/>
<path d="M11.7969 17.1875C12.3923 17.1875 12.875 16.7048 12.875 16.1094C12.875 15.5139 12.3923 15.0312 11.7969 15.0312C11.2014 15.0312 10.7188 15.5139 10.7188 16.1094C10.7188 16.7048 11.2014 17.1875 11.7969 17.1875Z" fill="black"/>
<path d="M4.25 0.65625V2.09375M15.75 0.65625V2.09375" stroke="black" stroke-width="1.4375" stroke-linecap="round" stroke-linejoin="round"/>
<path d="M19.3438 5.6875H0.65625" stroke="black" stroke-width="1.4375" stroke-linejoin="round"/>
</g>
<defs>
<clipPath id="clip0_3_2">
<rect width="20" height="20" fill="white"/>
</clipPath>
</defs>
</svg>
