<svg width="80" height="60" viewBox="0 0 80 60" fill="none" xmlns="http://www.w3.org/2000/svg">
<g clip-path="url(#clip0_6_1160)">
<path d="M0 0H80V60H0V0Z" fill="#EE1C25"/>
<path d="M9.59995 22.2L14.9999 6L20.3998 22.2L6 12.3H23.9998L9.59995 22.2Z" fill="#FFFF00"/>
<path d="M33.0211 6.31045L27.4639 7.54197L31.1708 3.22239L30.8072 9.03598L27.7233 3.8892L33.0211 6.31045Z" fill="#FFFF00"/>
<path d="M38.6298 13.4184L33.0299 12.3982L38.1219 9.85437L35.5321 15.0719L34.6857 9.13191L38.6298 13.4184Z" fill="#FFFF00"/>
<path d="M37.8128 23.3905L33.1159 20.1751L38.8026 19.9293L34.31 23.6369L35.9598 17.8682L37.8128 23.3905Z" fill="#FFFF00"/>
<path d="M30.7486 29.9051L27.6581 25.1251L32.9985 27.0948L27.4225 28.7795L31.1723 24.0956L30.7486 29.9051Z" fill="#FFFF00"/>
</g>
<defs>
<clipPath id="clip0_6_1160">
<rect width="80" height="60" fill="white"/>
</clipPath>
</defs>
</svg>
