<svg width="21" height="22" viewBox="0 0 21 22" fill="none" xmlns="http://www.w3.org/2000/svg">
<path fill-rule="evenodd" clip-rule="evenodd" d="M10.8165 0.816284C5.19405 0.816284 0.632812 5.37752 0.632812 11C0.632812 16.6224 5.19405 21.1836 10.8165 21.1836C16.4389 21.1836 21.0002 16.6224 21.0002 11C21.0002 5.37752 16.4389 0.816284 10.8165 0.816284ZM2.63281 11C2.63281 6.48209 6.29862 2.81628 10.8165 2.81628C15.3344 2.81628 19.0002 6.48209 19.0002 11C19.0002 15.5178 15.3344 19.1836 10.8165 19.1836C6.29862 19.1836 2.63281 15.5178 2.63281 11ZM11.8165 4.87751C11.8165 4.32522 11.3688 3.87751 10.8165 3.87751C10.2642 3.87751 9.81649 4.32522 9.81649 4.87751V11.7653C9.81649 12.3175 10.2642 12.7653 10.8165 12.7653H15.4083C15.9606 12.7653 16.4083 12.3175 16.4083 11.7653C16.4083 11.213 15.9606 10.7653 15.4083 10.7653H11.8165V4.87751Z" fill="black"/>
</svg>
