<svg width="20" height="20" viewBox="0 0 20 20" fill="none" xmlns="http://www.w3.org/2000/svg">
<path fill-rule="evenodd" clip-rule="evenodd" d="M9.99999 0C4.47896 0 0 4.47896 0 10C0 15.521 4.47896 19.9999 9.99999 19.9999C15.521 19.9999 20 15.521 20 10C20 4.47896 15.521 0 9.99999 0ZM1.96392 10C1.96392 5.56361 5.56361 1.96392 9.99999 1.96392C14.4364 1.96392 18.0361 5.56361 18.0361 10C18.0361 14.4363 14.4364 18.036 9.99999 18.036C5.56361 18.036 1.96392 14.4363 1.96392 10ZM10.982 3.98797C10.982 3.44564 10.5423 3.00601 9.99999 3.00601C9.45766 3.00601 9.01802 3.44564 9.01802 3.98797V10.7515C9.01802 11.2938 9.45766 11.7335 9.99999 11.7335H14.509C15.0513 11.7335 15.4909 11.2938 15.4909 10.7515C15.4909 10.2092 15.0513 9.76955 14.509 9.76955H10.982V3.98797Z" fill="black"/>
</svg>
