<svg width="20" height="16" viewBox="0 0 20 16" fill="none" xmlns="http://www.w3.org/2000/svg">
<path d="M17.4836 0H2.51636C1.84898 0 1.20893 0.265115 0.737024 0.737024C0.265115 1.20893 0 1.84898 0 2.51636V13.4575C0 14.1249 0.265115 14.7649 0.737024 15.2368C1.20893 15.7087 1.84898 15.9738 2.51636 15.9738H17.4836C18.151 15.9738 18.7911 15.7087 19.263 15.2368C19.7349 14.7649 20 14.1249 20 13.4575V2.51636C20 1.84898 19.7349 1.20893 19.263 0.737024C18.7911 0.265115 18.151 0 17.4836 0ZM2.51636 1.00654H17.4836C17.8646 1.00544 18.2317 1.14948 18.5103 1.40937C18.7889 1.66926 18.9581 2.02549 18.9834 2.40564C16.4972 3.73427 14.001 5.05284 11.5048 6.38148C11.1671 6.59311 10.8098 6.77176 10.4378 6.91495C10.1459 6.97257 9.84494 6.96737 9.55511 6.89968C9.26528 6.832 8.99319 6.70339 8.75692 6.5224C7.32763 5.76749 5.89834 5.00252 4.47911 4.24761C3.33166 3.64368 2.16407 3.02969 1.01661 2.4157C1.03995 2.03394 1.20818 1.67549 1.48692 1.41358C1.76566 1.15168 2.13388 1.00609 2.51636 1.00654ZM18.9935 13.4575C18.9935 13.8579 18.8344 14.2419 18.5512 14.5251C18.2681 14.8082 17.8841 14.9673 17.4836 14.9673H2.51636C2.11593 14.9673 1.7319 14.8082 1.44876 14.5251C1.16561 14.2419 1.00654 13.8579 1.00654 13.4575V3.55813C3.38198 4.80624 5.74736 6.07448 8.1228 7.33266C8.54721 7.59287 9.00409 7.79593 9.48163 7.93659C10.1806 8.05022 10.8969 7.90338 11.4947 7.52391C12.9542 6.75893 14.4036 5.9839 15.8631 5.21892C16.9099 4.65526 17.9467 4.11173 18.9935 3.55813V13.4575Z" fill="white"/>
</svg>
