<svg width="20" height="18" viewBox="0 0 20 18" fill="none" xmlns="http://www.w3.org/2000/svg">
<path d="M16.219 0.943512C16.872 1.45551 17.322 2.28251 17.506 3.14851C17.5283 3.15556 17.55 3.16425 17.571 3.17451L19.616 4.12051C19.7303 4.173 19.8272 4.2571 19.8952 4.36289C19.9633 4.46868 19.9996 4.59173 20 4.71751V17.0845C19.9993 17.1872 19.9747 17.2884 19.9284 17.3801C19.882 17.4717 19.815 17.5514 19.7326 17.6128C19.6503 17.6742 19.5548 17.7157 19.4537 17.7341C19.3526 17.7524 19.2487 17.7471 19.15 17.7185L13.481 16.1185L6.741 17.9765C6.61939 18.0099 6.49086 18.0085 6.37 17.9725L0.474 16.2175C0.337721 16.1775 0.21799 16.0946 0.132595 15.9811C0.047201 15.8676 0.00069966 15.7295 0 15.5875L0 2.99851C0 2.55851 0.428 2.24251 0.855 2.36651L6.557 4.02751L9.455 3.14051C9.49488 3.12874 9.5357 3.12037 9.577 3.11551C9.689 2.45951 10.002 1.82951 10.527 1.21551C11.15 0.485512 12.243 0.0575126 13.308 0.00651256C14.413 -0.0464874 15.257 0.189513 16.218 0.942512L16.219 0.943512ZM1.333 3.88151V15.0965L6.203 16.5455V5.29851L1.333 3.88151ZM9.542 4.49551L7.536 5.10851V16.3875L12.601 14.9935V11.6985C12.601 11.3345 12.9 11.0395 13.268 11.0395C13.636 11.0395 13.934 11.3345 13.934 11.6995V14.8765L18.667 16.2115V5.13651L17.547 4.61651C17.528 4.72651 17.504 4.83451 17.474 4.93951C17.2565 5.70627 16.8917 6.4233 16.4 7.05051L13.923 10.1435C13.8578 10.2248 13.7745 10.2898 13.6797 10.3333C13.585 10.3768 13.4814 10.3975 13.3772 10.3939C13.273 10.3904 13.1711 10.3625 13.0796 10.3126C12.9881 10.2627 12.9095 10.1921 12.85 10.1065L10.535 6.75351C10.153 6.21951 9.885 5.74351 9.734 5.31751C9.63922 5.05163 9.57481 4.77587 9.542 4.49551ZM13.372 1.32451C12.646 1.35951 11.9 1.65151 11.545 2.06651C11.118 2.56651 10.908 3.03451 10.866 3.50851C10.816 4.07951 10.85 4.48251 10.992 4.88151C11.097 5.17651 11.306 5.55051 11.629 6.00151L13.44 8.62351L15.35 6.23851C15.7353 5.74607 16.021 5.18324 16.191 4.58151C16.431 3.74151 16.069 2.50751 15.391 1.97751C14.696 1.43251 14.171 1.28551 13.373 1.32451H13.372ZM13.51 2.02151C14.614 2.02151 15.51 2.90651 15.51 3.99851C15.5086 4.25967 15.4557 4.51798 15.3544 4.75869C15.2531 4.9994 15.1053 5.21779 14.9196 5.40138C14.7339 5.58498 14.5138 5.73018 14.2719 5.82869C14.0301 5.9272 13.7712 5.97709 13.51 5.97551C12.406 5.97551 11.51 5.09051 11.51 3.99851C11.51 2.90651 12.406 2.02151 13.51 2.02151ZM13.51 3.33951C13.4229 3.33899 13.3366 3.35561 13.256 3.38845C13.1753 3.42128 13.102 3.46967 13.04 3.53087C12.9781 3.59206 12.9288 3.66486 12.895 3.7451C12.8612 3.82533 12.8435 3.91145 12.843 3.99851C12.843 4.36251 13.142 4.65751 13.51 4.65751C13.5971 4.65791 13.6834 4.64115 13.7639 4.60819C13.8445 4.57524 13.9178 4.52673 13.9797 4.46545C14.0415 4.40416 14.0907 4.33129 14.1244 4.251C14.1581 4.17072 14.1756 4.08458 14.176 3.99751C14.1747 3.82202 14.1038 3.65421 13.979 3.53087C13.8541 3.40753 13.6855 3.33871 13.51 3.33951Z" fill="black"/>
</svg>
