<svg width="27" height="30" viewBox="0 0 27 30" fill="none" xmlns="http://www.w3.org/2000/svg">
<path d="M10.7181 1.87462C10.9422 1.32075 11.3266 0.846413 11.822 0.512422C12.3174 0.178431 12.9013 0 13.4988 0C14.0963 0 14.6802 0.178431 15.1756 0.512422C15.671 0.846413 16.0554 1.32075 16.2795 1.87462C18.4974 2.48458 20.4537 3.80575 21.8481 5.63523C23.2424 7.4647 23.9976 9.70131 23.9977 12.0016V19.0463L26.7454 23.1679C26.8961 23.3938 26.9827 23.6563 26.9958 23.9275C27.009 24.1987 26.9483 24.4684 26.8202 24.7079C26.6921 24.9473 26.5014 25.1474 26.2685 25.287C26.0355 25.4265 25.7691 25.5002 25.4975 25.5001H18.6958C18.5152 26.7497 17.8904 27.8923 16.936 28.7187C15.9816 29.5451 14.7613 30 13.4988 30C12.2363 30 11.0161 29.5451 10.0616 28.7187C9.10717 27.8923 8.48244 26.7497 8.30185 25.5001H1.50007C1.22853 25.5002 0.962078 25.4265 0.729135 25.287C0.496191 25.1474 0.305496 24.9473 0.177395 24.7079C0.0492938 24.4684 -0.0114074 24.1987 0.00176659 23.9275C0.0149406 23.6563 0.101496 23.3938 0.252198 23.1679L2.99991 19.0463V12.0016C2.99991 7.16606 6.26956 3.09249 10.7181 1.87462ZM11.378 25.5001C11.5329 25.9391 11.8202 26.3191 12.2001 26.588C12.5801 26.8568 13.0341 27.0012 13.4996 27.0012C13.965 27.0012 14.419 26.8568 14.799 26.588C15.179 26.3191 15.4662 25.9391 15.6211 25.5001H11.3765H11.378ZM13.4988 4.50234C11.5099 4.50234 9.60244 5.29244 8.19606 6.69881C6.78969 8.10519 5.99959 10.0126 5.99959 12.0016V19.5008C5.99966 19.797 5.91198 20.0867 5.74762 20.3332L4.30327 22.5005H22.6928L21.2485 20.3332C21.0847 20.0865 20.9975 19.7969 20.998 19.5008V12.0016C20.998 10.0126 20.2079 8.10519 18.8015 6.69881C17.3952 5.29244 15.4877 4.50234 13.4988 4.50234Z" fill="white"/>
</svg>
