<svg width="50" height="44" viewBox="0 0 50 44" fill="none" xmlns="http://www.w3.org/2000/svg">
<path d="M45.7374 0.949645C45.7374 0.949645 50.3627 -0.905457 49.9772 3.59979C49.8488 5.45491 48.6924 11.9478 47.7931 18.9707L44.7096 39.7744C44.7096 39.7744 44.4526 42.822 42.1398 43.352C39.8272 43.882 36.3581 41.497 35.7157 40.967C35.2017 40.5694 26.0795 34.6066 22.8674 31.6916C21.968 30.8963 20.9402 29.3063 22.9959 27.4511L36.4867 14.2005C38.0284 12.6103 39.5703 8.90015 33.146 13.4054L15.1585 25.9937C15.1585 25.9937 13.1027 27.3187 9.24834 26.1261L0.89693 23.476C0.89693 23.476 -2.18666 21.4884 3.08114 19.5007C15.9294 13.2728 31.7329 6.91244 45.7374 0.949645Z" fill="white"/>
</svg>
