<svg width="50" height="30" viewBox="0 0 50 30" fill="none" xmlns="http://www.w3.org/2000/svg">
<path d="M48.8535 2.6606C49.2029 1.54537 48.8535 0.727539 47.2016 0.727539H41.7298C40.3375 0.727539 39.7012 1.43505 39.3518 2.21211C39.3518 2.21211 36.5698 8.7332 32.6273 12.9615C31.3548 14.1918 30.7733 14.5803 30.0796 14.5803C29.7329 14.5803 29.2287 14.1918 29.2287 13.0766V2.6606C29.2287 1.32233 28.8271 0.727539 27.6669 0.727539H19.0683C18.2 0.727539 17.676 1.34631 17.676 1.9363C17.676 3.20262 19.6472 3.49522 19.8493 7.06395V14.8058C19.8493 16.5014 19.5324 16.8108 18.8338 16.8108C16.9798 16.8108 12.4685 10.2657 9.79118 2.77332C9.26968 1.31753 8.74318 0.729938 7.34587 0.729938H1.87639C0.3119 0.729938 0 1.43745 0 2.21451C0 3.61035 1.85393 10.5176 8.63589 19.6528C13.1572 25.8909 19.5225 29.2725 25.3212 29.2725C28.7971 29.2725 29.2262 28.5219 29.2262 27.2267V22.5117C29.2262 21.0103 29.5581 20.7081 30.6585 20.7081C31.4671 20.7081 32.8593 21.1014 36.1056 24.1065C39.8135 27.6704 40.4273 29.2702 42.5108 29.2702H47.9802C49.5423 29.2702 50.3233 28.5194 49.8741 27.0373C49.3825 25.5623 47.611 23.4159 45.2604 20.876C43.9829 19.4274 42.0741 17.8685 41.4927 17.089C40.6818 16.0841 40.9162 15.6404 41.4927 14.7482C41.4927 14.7482 48.16 5.72808 48.8535 2.6606Z" fill="white"/>
</svg>
